<svg xmlns="http://www.w3.org/2000/svg" xmlns:xlink="http://www.w3.org/1999/xlink" width="500" zoomAndPan="magnify" viewBox="0 0 375 374.999991" height="500" preserveAspectRatio="xMidYMid meet" version="1.0"><defs><g/></defs><g fill="#ffffff" fill-opacity="1"><g transform="translate(19.874264, 191.067799)"><g><path d="M 10.875 -22.195312 L 2.0625 -22.195312 L 2.0625 0 L 10.875 0 C 16.996094 0 21.5625 -4.851562 21.5625 -11.097656 C 21.5625 -17.34375 16.996094 -22.195312 10.875 -22.195312 Z M 10.875 -4.183594 L 6.4375 -4.183594 L 6.4375 -18.011719 L 10.875 -18.011719 C 14.710938 -18.011719 17.375 -15.1875 17.375 -11.097656 C 17.375 -7.007812 14.710938 -4.183594 10.875 -4.183594 Z M 10.875 -4.183594 "/></g></g></g><g fill="#ffffff" fill-opacity="1"><g transform="translate(42.482052, 191.067799)"><g><path d="M 3.898438 -17.757812 C 5.296875 -17.757812 6.4375 -18.898438 6.4375 -20.261719 C 6.4375 -21.625 5.296875 -22.796875 3.898438 -22.796875 C 2.535156 -22.796875 1.394531 -21.625 1.394531 -20.261719 C 1.394531 -18.898438 2.535156 -17.757812 3.898438 -17.757812 Z M 1.871094 0 L 5.960938 0 L 5.960938 -15.855469 L 1.871094 -15.855469 Z M 1.871094 0 "/></g></g></g><g fill="#ffffff" fill-opacity="1"><g transform="translate(50.313933, 191.067799)"><g><path d="M 14.015625 -15.855469 L 14.015625 -13.886719 C 12.90625 -15.378906 11.191406 -16.296875 8.941406 -16.296875 C 4.4375 -16.296875 1.046875 -12.621094 1.046875 -8.179688 C 1.046875 -3.710938 4.4375 -0.0625 8.941406 -0.0625 C 11.191406 -0.0625 12.90625 -0.984375 14.015625 -2.472656 L 14.015625 -0.761719 C 14.015625 1.742188 12.429688 3.140625 9.859375 3.140625 C 7.417969 3.140625 6.375 2.15625 5.707031 0.917969 L 2.21875 2.917969 C 3.613281 5.484375 6.339844 6.785156 9.734375 6.785156 C 13.917969 6.785156 18.011719 4.4375 18.011719 -0.761719 L 18.011719 -15.855469 Z M 9.574219 -3.835938 C 7.007812 -3.835938 5.136719 -5.644531 5.136719 -8.179688 C 5.136719 -10.6875 7.007812 -12.492188 9.574219 -12.492188 C 12.144531 -12.492188 14.015625 -10.6875 14.015625 -8.179688 C 14.015625 -5.644531 12.144531 -3.835938 9.574219 -3.835938 Z M 9.574219 -3.835938 "/></g></g></g><g fill="#ffffff" fill-opacity="1"><g transform="translate(70.163136, 191.067799)"><g><path d="M 3.898438 -17.757812 C 5.296875 -17.757812 6.4375 -18.898438 6.4375 -20.261719 C 6.4375 -21.625 5.296875 -22.796875 3.898438 -22.796875 C 2.535156 -22.796875 1.394531 -21.625 1.394531 -20.261719 C 1.394531 -18.898438 2.535156 -17.757812 3.898438 -17.757812 Z M 1.871094 0 L 5.960938 0 L 5.960938 -15.855469 L 1.871094 -15.855469 Z M 1.871094 0 "/></g></g></g><g fill="#ffffff" fill-opacity="1"><g transform="translate(77.995017, 191.067799)"><g><path d="M 10.9375 -11.921875 L 10.9375 -15.855469 L 7.355469 -15.855469 L 7.355469 -20.292969 L 3.265625 -19.054688 L 3.265625 -15.855469 L 0.507812 -15.855469 L 0.507812 -11.921875 L 3.265625 -11.921875 L 3.265625 -5.328125 C 3.265625 -1.046875 5.199219 0.632812 10.9375 0 L 10.9375 -3.710938 C 8.59375 -3.582031 7.355469 -3.613281 7.355469 -5.328125 L 7.355469 -11.921875 Z M 10.9375 -11.921875 "/></g></g></g><g fill="#ffffff" fill-opacity="1"><g transform="translate(90.202593, 191.067799)"><g><path d="M 13.917969 -15.855469 L 13.917969 -13.984375 C 12.777344 -15.410156 11.066406 -16.296875 8.75 -16.296875 C 4.535156 -16.296875 1.046875 -12.652344 1.046875 -7.925781 C 1.046875 -3.203125 4.535156 0.445312 8.75 0.445312 C 11.066406 0.445312 12.777344 -0.445312 13.917969 -1.871094 L 13.917969 0 L 18.011719 0 L 18.011719 -15.855469 Z M 9.511719 -3.457031 C 7.007812 -3.457031 5.136719 -5.261719 5.136719 -7.925781 C 5.136719 -10.589844 7.007812 -12.398438 9.511719 -12.398438 C 12.050781 -12.398438 13.917969 -10.589844 13.917969 -7.925781 C 13.917969 -5.261719 12.050781 -3.457031 9.511719 -3.457031 Z M 9.511719 -3.457031 "/></g></g></g><g fill="#ffffff" fill-opacity="1"><g transform="translate(110.051796, 191.067799)"><g><path d="M 1.871094 0 L 5.960938 0 L 5.960938 -23.148438 L 1.871094 -23.148438 Z M 1.871094 0 "/></g></g></g><g fill="#ffffff" fill-opacity="1"><g transform="translate(117.883677, 191.067799)"><g/></g></g><g fill="#ffffff" fill-opacity="1"><g transform="translate(125.810668, 191.067799)"><g><path d="M 12.589844 0.445312 C 16.679688 0.445312 20.261719 -1.617188 22.132812 -4.789062 L 18.359375 -6.976562 C 17.3125 -5.042969 15.125 -3.835938 12.589844 -3.835938 C 8.242188 -3.835938 5.390625 -6.847656 5.390625 -11.097656 C 5.390625 -15.378906 8.242188 -18.390625 12.589844 -18.390625 C 15.125 -18.390625 17.28125 -17.1875 18.359375 -15.21875 L 22.132812 -17.40625 C 20.230469 -20.578125 16.648438 -22.640625 12.589844 -22.640625 C 5.867188 -22.640625 1.046875 -17.597656 1.046875 -11.097656 C 1.046875 -4.628906 5.867188 0.445312 12.589844 0.445312 Z M 12.589844 0.445312 "/></g></g></g><g fill="#ffffff" fill-opacity="1"><g transform="translate(148.830673, 191.067799)"><g><path d="M 5.328125 -6.246094 L 17.28125 -6.246094 C 17.375 -6.785156 17.4375 -7.324219 17.4375 -7.925781 C 17.4375 -12.589844 14.109375 -16.296875 9.417969 -16.296875 C 4.4375 -16.296875 1.046875 -12.652344 1.046875 -7.925781 C 1.046875 -3.203125 4.40625 0.445312 9.734375 0.445312 C 12.777344 0.445312 15.15625 -0.792969 16.648438 -2.949219 L 13.347656 -4.851562 C 12.652344 -3.933594 11.382812 -3.265625 9.796875 -3.265625 C 7.640625 -3.265625 5.898438 -4.152344 5.328125 -6.246094 Z M 5.261719 -9.417969 C 5.738281 -11.445312 7.230469 -12.621094 9.417969 -12.621094 C 11.128906 -12.621094 12.839844 -11.699219 13.347656 -9.417969 Z M 5.261719 -9.417969 "/></g></g></g><g fill="#ffffff" fill-opacity="1"><g transform="translate(167.25302, 191.067799)"><g><path d="M 10.6875 -16.296875 C 8.5625 -16.296875 6.914062 -15.503906 5.960938 -14.078125 L 5.960938 -15.855469 L 1.871094 -15.855469 L 1.871094 0 L 5.960938 0 L 5.960938 -8.5625 C 5.960938 -11.320312 7.453125 -12.492188 9.449219 -12.492188 C 11.289062 -12.492188 12.589844 -11.382812 12.589844 -9.226562 L 12.589844 0 L 16.679688 0 L 16.679688 -9.734375 C 16.679688 -13.953125 14.046875 -16.296875 10.6875 -16.296875 Z M 10.6875 -16.296875 "/></g></g></g><g fill="#ffffff" fill-opacity="1"><g transform="translate(185.54853, 191.067799)"><g><path d="M 10.9375 -11.921875 L 10.9375 -15.855469 L 7.355469 -15.855469 L 7.355469 -20.292969 L 3.265625 -19.054688 L 3.265625 -15.855469 L 0.507812 -15.855469 L 0.507812 -11.921875 L 3.265625 -11.921875 L 3.265625 -5.328125 C 3.265625 -1.046875 5.199219 0.632812 10.9375 0 L 10.9375 -3.710938 C 8.59375 -3.582031 7.355469 -3.613281 7.355469 -5.328125 L 7.355469 -11.921875 Z M 10.9375 -11.921875 "/></g></g></g><g fill="#ffffff" fill-opacity="1"><g transform="translate(197.756107, 191.067799)"><g><path d="M 12.335938 -15.855469 L 12.335938 -7.292969 C 12.335938 -4.535156 10.84375 -3.359375 8.847656 -3.359375 C 7.007812 -3.359375 5.707031 -4.472656 5.707031 -6.628906 L 5.707031 -15.855469 L 1.617188 -15.855469 L 1.617188 -6.121094 C 1.617188 -1.902344 4.25 0.445312 7.609375 0.445312 C 9.734375 0.445312 11.382812 -0.347656 12.335938 -1.777344 L 12.335938 0 L 16.425781 0 L 16.425781 -15.855469 Z M 12.335938 -15.855469 "/></g></g></g><g fill="#ffffff" fill-opacity="1"><g transform="translate(216.051617, 191.067799)"><g><path d="M 5.960938 -13.128906 L 5.960938 -15.855469 L 1.871094 -15.855469 L 1.871094 0 L 5.960938 0 L 5.960938 -7.578125 C 5.960938 -10.90625 8.65625 -11.859375 10.78125 -11.605469 L 10.78125 -16.171875 C 8.78125 -16.171875 6.785156 -15.285156 5.960938 -13.128906 Z M 5.960938 -13.128906 "/></g></g></g><g fill="#ffffff" fill-opacity="1"><g transform="translate(227.339666, 191.067799)"><g><path d="M 12.207031 -15.855469 L 8.6875 -5.199219 L 4.566406 -15.855469 L 0.09375 -15.855469 L 6.59375 -0.507812 C 5.835938 1.617188 4.691406 2.566406 2.441406 2.535156 L 2.441406 6.339844 C 6.46875 6.5625 9.164062 4.566406 10.8125 0 L 16.582031 -15.855469 Z M 12.207031 -15.855469 "/></g></g></g><g fill="#ffffff" fill-opacity="1"><g transform="translate(243.986356, 191.067799)"><g/></g></g><g fill="#ffffff" fill-opacity="1"><g transform="translate(251.913346, 191.067799)"><g><path d="M 15.472656 -11.511719 C 16.773438 -12.554688 17.566406 -14.046875 17.566406 -15.949219 C 17.566406 -19.660156 14.554688 -22.195312 10.8125 -22.195312 L 2.0625 -22.195312 L 2.0625 0 L 11.476562 0 C 15.316406 0 18.390625 -2.632812 18.390625 -6.4375 C 18.390625 -8.75 17.25 -10.496094 15.472656 -11.511719 Z M 10.8125 -18.105469 C 12.207031 -18.105469 13.191406 -17.058594 13.191406 -15.664062 C 13.191406 -14.269531 12.175781 -13.222656 10.8125 -13.222656 L 6.4375 -13.222656 L 6.4375 -18.105469 Z M 11.476562 -4.089844 L 6.4375 -4.089844 L 6.4375 -9.320312 L 11.476562 -9.320312 C 12.96875 -9.320312 14.046875 -8.210938 14.046875 -6.722656 C 14.046875 -5.199219 12.96875 -4.089844 11.476562 -4.089844 Z M 11.476562 -4.089844 "/></g></g></g><g fill="#ffffff" fill-opacity="1"><g transform="translate(271.096675, 191.067799)"><g><path d="M 5.960938 -13.128906 L 5.960938 -15.855469 L 1.871094 -15.855469 L 1.871094 0 L 5.960938 0 L 5.960938 -7.578125 C 5.960938 -10.90625 8.65625 -11.859375 10.78125 -11.605469 L 10.78125 -16.171875 C 8.78125 -16.171875 6.785156 -15.285156 5.960938 -13.128906 Z M 5.960938 -13.128906 "/></g></g></g><g fill="#ffffff" fill-opacity="1"><g transform="translate(282.384724, 191.067799)"><g><path d="M 13.917969 -15.855469 L 13.917969 -13.984375 C 12.777344 -15.410156 11.066406 -16.296875 8.75 -16.296875 C 4.535156 -16.296875 1.046875 -12.652344 1.046875 -7.925781 C 1.046875 -3.203125 4.535156 0.445312 8.75 0.445312 C 11.066406 0.445312 12.777344 -0.445312 13.917969 -1.871094 L 13.917969 0 L 18.011719 0 L 18.011719 -15.855469 Z M 9.511719 -3.457031 C 7.007812 -3.457031 5.136719 -5.261719 5.136719 -7.925781 C 5.136719 -10.589844 7.007812 -12.398438 9.511719 -12.398438 C 12.050781 -12.398438 13.917969 -10.589844 13.917969 -7.925781 C 13.917969 -5.261719 12.050781 -3.457031 9.511719 -3.457031 Z M 9.511719 -3.457031 "/></g></g></g><g fill="#ffffff" fill-opacity="1"><g transform="translate(302.233927, 191.067799)"><g><path d="M 10.6875 -16.296875 C 8.5625 -16.296875 6.914062 -15.503906 5.960938 -14.078125 L 5.960938 -15.855469 L 1.871094 -15.855469 L 1.871094 0 L 5.960938 0 L 5.960938 -8.5625 C 5.960938 -11.320312 7.453125 -12.492188 9.449219 -12.492188 C 11.289062 -12.492188 12.589844 -11.382812 12.589844 -9.226562 L 12.589844 0 L 16.679688 0 L 16.679688 -9.734375 C 16.679688 -13.953125 14.046875 -16.296875 10.6875 -16.296875 Z M 10.6875 -16.296875 "/></g></g></g><g fill="#ffffff" fill-opacity="1"><g transform="translate(320.529437, 191.067799)"><g><path d="M 13.886719 -22.195312 L 13.886719 -13.984375 C 12.746094 -15.441406 11.066406 -16.296875 8.75 -16.296875 C 4.503906 -16.296875 1.015625 -12.652344 1.015625 -7.925781 C 1.015625 -3.203125 4.503906 0.445312 8.75 0.445312 C 11.066406 0.445312 12.746094 -0.414062 13.886719 -1.871094 L 13.886719 0 L 17.976562 0 L 17.976562 -22.195312 Z M 9.511719 -3.457031 C 6.976562 -3.457031 5.105469 -5.261719 5.105469 -7.925781 C 5.105469 -10.589844 6.976562 -12.398438 9.511719 -12.398438 C 12.015625 -12.398438 13.886719 -10.589844 13.886719 -7.925781 C 13.886719 -5.261719 12.015625 -3.457031 9.511719 -3.457031 Z M 9.511719 -3.457031 "/></g></g></g><g fill="#ffffff" fill-opacity="1"><g transform="translate(340.37864, 191.067799)"><g><path d="M 5.644531 -11.351562 C 5.644531 -12.207031 6.46875 -12.652344 7.484375 -12.652344 C 8.65625 -12.652344 9.542969 -12.050781 10.019531 -11.035156 L 13.507812 -12.9375 C 12.269531 -15.125 10.050781 -16.296875 7.484375 -16.296875 C 4.21875 -16.296875 1.457031 -14.492188 1.457031 -11.257812 C 1.457031 -5.675781 9.640625 -6.945312 9.640625 -4.628906 C 9.640625 -3.710938 8.75 -3.265625 7.453125 -3.265625 C 5.867188 -3.265625 4.789062 -4.027344 4.34375 -5.328125 L 0.792969 -3.328125 C 1.933594 -0.886719 4.28125 0.445312 7.453125 0.445312 C 10.84375 0.445312 13.824219 -1.203125 13.824219 -4.628906 C 13.824219 -10.464844 5.644531 -9.003906 5.644531 -11.351562 Z M 5.644531 -11.351562 "/></g></g></g></svg>